  0
SECTION
  2
HEADER
  9
$ACADVER
  1
AC1015
  9
$ACADMAINTVER
 70
     6
  9
$DWGCODEPAGE
  3
ANSI_1252
  9
$INSBASE
 10
0.0
 20
0.0
 30
0.0
  9
$EXTMIN
 10
-21.0
 20
-20.75
 30
0.0
  9
$EXTMAX
 10
29.6
 20
6.6999998539
 30
0.0
  9
$LIMMIN
 10
0.0
 20
0.0
  9
$LIMMAX
 10
420.0
 20
297.0
  9
$ORTHOMODE
 70
     0
  9
$REGENMODE
 70
     1
  9
$FILLMODE
 70
     1
  9
$QTEXTMODE
 70
     0
  9
$MIRRTEXT
 70
     1
  9
$LTSCALE
 40
1.0
  9
$ATTMODE
 70
     1
  9
$TEXTSIZE
 40
3.5
  9
$TRACEWID
 40
1.0
  9
$TEXTSTYLE
  7
Standard
  9
$CLAYER
  8
0
  9
$CELTYPE
  6
ByLayer
  9
$CECOLOR
 62
   256
  9
$CELTSCALE
 40
1.0
  9
$DISPSILH
 70
     0
  9
$DIMSCALE
 40
1.0
  9
$DIMASZ
 40
3.302
  9
$DIMEXO
 40
0.0
  9
$DIMDLI
 40
3.75
  9
$DIMRND
 40
0.0
  9
$DIMDLE
 40
0.0
  9
$DIMEXE
 40
1.0
  9
$DIMTP
 40
0.0
  9
$DIMTM
 40
0.0
  9
$DIMTXT
 40
3.5
  9
$DIMCEN
 40
2.5
  9
$DIMTSZ
 40
0.0
  9
$DIMTOL
 70
     0
  9
$DIMLIM
 70
     0
  9
$DIMTIH
 70
     1
  9
$DIMTOH
 70
     1
  9
$DIMSE1
 70
     0
  9
$DIMSE2
 70
     0
  9
$DIMTAD
 70
     1
  9
$DIMZIN
 70
     1
  9
$DIMBLK
  1

  9
$DIMASO
 70
     1
  9
$DIMSHO
 70
     1
  9
$DIMPOST
  1

  9
$DIMAPOST
  1

  9
$DIMALT
 70
     0
  9
$DIMALTD
 70
     3
  9
$DIMALTF
 40
0.0393700787
  9
$DIMLFAC
 40
1.0
  9
$DIMTOFL
 70
     1
  9
$DIMTVP
 40
0.0
  9
$DIMTIX
 70
     0
  9
$DIMSOXD
 70
     0
  9
$DIMSAH
 70
     0
  9
$DIMBLK1
  1

  9
$DIMBLK2
  1

  9
$DIMSTYLE
  2
ISO-25
  9
$DIMCLRD
 70
     0
  9
$DIMCLRE
 70
     0
  9
$DIMCLRT
 70
     0
  9
$DIMTFAC
 40
1.0
  9
$DIMGAP
 40
1.524
  9
$DIMJUST
 70
     0
  9
$DIMSD1
 70
     0
  9
$DIMSD2
 70
     0
  9
$DIMTOLJ
 70
     0
  9
$DIMTZIN
 70
     1
  9
$DIMALTZ
 70
     0
  9
$DIMALTTZ
 70
     0
  9
$DIMUPT
 70
     0
  9
$DIMDEC
 70
     2
  9
$DIMTDEC
 70
     2
  9
$DIMALTU
 70
     2
  9
$DIMALTTD
 70
     3
  9
$DIMTXSTY
  7
Standard
  9
$DIMAUNIT
 70
     0
  9
$DIMADEC
 70
     2
  9
$DIMALTRND
 40
0.0
  9
$DIMAZIN
 70
     0
  9
$DIMDSEP
 70
    44
  9
$DIMATFIT
 70
     3
  9
$DIMFRAC
 70
     0
  9
$DIMLDRBLK
  1

  9
$DIMLUNIT
 70
     2
  9
$DIMLWD
 70
    -2
  9
$DIMLWE
 70
    -2
  9
$DIMTMOVE
 70
     0
  9
$LUNITS
 70
     2
  9
$LUPREC
 70
     2
  9
$SKETCHINC
 40
1.0
  9
$FILLETRAD
 40
10.0
  9
$AUNITS
 70
     0
  9
$AUPREC
 70
     2
  9
$MENU
  1
.
  9
$ELEVATION
 40
0.0
  9
$PELEVATION
 40
0.0
  9
$THICKNESS
 40
0.0
  9
$LIMCHECK
 70
     0
  9
$CHAMFERA
 40
0.0
  9
$CHAMFERB
 40
0.0
  9
$CHAMFERC
 40
0.0
  9
$CHAMFERD
 40
0.0
  9
$SKPOLY
 70
     0
  9
$TDCREATE
 40
2459210.336219051
  9
$TDUCREATE
 40
2459210.252885717
  9
$TDUPDATE
 40
2459210.336278368
  9
$TDUUPDATE
 40
2459210.252945035
  9
$TDINDWG
 40
0.0000000116
  9
$TDUSRTIMER
 40
0.0000000116
  9
$USRTIMER
 70
     1
  9
$ANGBASE
 50
0.0
  9
$ANGDIR
 70
     0
  9
$PDMODE
 70
     0
  9
$PDSIZE
 40
-1.0
  9
$PLINEWID
 40
0.0
  9
$SPLFRAME
 70
     0
  9
$SPLINETYPE
 70
     6
  9
$SPLINESEGS
 70
     8
  9
$HANDSEED
  5
AB
  9
$SURFTAB1
 70
     6
  9
$SURFTAB2
 70
     6
  9
$SURFTYPE
 70
     6
  9
$SURFU
 70
     6
  9
$SURFV
 70
     6
  9
$UCSBASE
  2

  9
$UCSNAME
  2

  9
$UCSORG
 10
0.0
 20
0.0
 30
0.0
  9
$UCSXDIR
 10
1.0
 20
0.0
 30
0.0
  9
$UCSYDIR
 10
0.0
 20
1.0
 30
0.0
  9
$UCSORTHOREF
  2

  9
$UCSORTHOVIEW
 70
     0
  9
$UCSORGTOP
 10
0.0
 20
0.0
 30
0.0
  9
$UCSORGBOTTOM
 10
0.0
 20
0.0
 30
0.0
  9
$UCSORGLEFT
 10
0.0
 20
0.0
 30
0.0
  9
$UCSORGRIGHT
 10
0.0
 20
0.0
 30
0.0
  9
$UCSORGFRONT
 10
0.0
 20
0.0
 30
0.0
  9
$UCSORGBACK
 10
0.0
 20
0.0
 30
0.0
  9
$PUCSBASE
  2

  9
$PUCSNAME
  2

  9
$PUCSORG
 10
0.0
 20
0.0
 30
0.0
  9
$PUCSXDIR
 10
1.0
 20
0.0
 30
0.0
  9
$PUCSYDIR
 10
0.0
 20
1.0
 30
0.0
  9
$PUCSORTHOREF
  2

  9
$PUCSORTHOVIEW
 70
     0
  9
$PUCSORGTOP
 10
0.0
 20
0.0
 30
0.0
  9
$PUCSORGBOTTOM
 10
0.0
 20
0.0
 30
0.0
  9
$PUCSORGLEFT
 10
0.0
 20
0.0
 30
0.0
  9
$PUCSORGRIGHT
 10
0.0
 20
0.0
 30
0.0
  9
$PUCSORGFRONT
 10
0.0
 20
0.0
 30
0.0
  9
$PUCSORGBACK
 10
0.0
 20
0.0
 30
0.0
  9
$USERI1
 70
     0
  9
$USERI2
 70
     0
  9
$USERI3
 70
     0
  9
$USERI4
 70
     0
  9
$USERI5
 70
     0
  9
$USERR1
 40
0.0
  9
$USERR2
 40
0.0
  9
$USERR3
 40
0.0
  9
$USERR4
 40
0.0
  9
$USERR5
 40
0.0
  9
$WORLDVIEW
 70
     1
  9
$SHADEDGE
 70
     3
  9
$SHADEDIF
 70
    70
  9
$TILEMODE
 70
     1
  9
$MAXACTVP
 70
    64
  9
$PINSBASE
 10
0.0
 20
0.0
 30
0.0
  9
$PLIMCHECK
 70
     0
  9
$PEXTMIN
 10
1.0000000000E+20
 20
1.0000000000E+20
 30
1.0000000000E+20
  9
$PEXTMAX
 10
-1.0000000000E+20
 20
-1.0000000000E+20
 30
-1.0000000000E+20
  9
$PLIMMIN
 10
0.0
 20
0.0
  9
$PLIMMAX
 10
420.0
 20
297.0
  9
$UNITMODE
 70
     0
  9
$VISRETAIN
 70
     1
  9
$PLINEGEN
 70
     0
  9
$PSLTSCALE
 70
     1
  9
$TREEDEPTH
 70
  3020
  9
$CMLSTYLE
  2
Standard
  9
$CMLJUST
 70
     0
  9
$CMLSCALE
 40
20.0
  9
$PROXYGRAPHICS
 70
     1
  9
$MEASUREMENT
 70
     1
  9
$CELWEIGHT
370
    -1
  9
$ENDCAPS
280
     0
  9
$JOINSTYLE
280
     0
  9
$LWDISPLAY
290
     1
  9
$INSUNITS
 70
     4
  9
$HYPERLINKBASE
  1

  9
$STYLESHEET
  1

  9
$XEDIT
290
     1
  9
$CEPSNTYPE
380
     0
  9
$PSTYLEMODE
290
     1
  9
$FINGERPRINTGUID
  2
{a92d38da-f82f-4d03-8e15-806930d22b36}
  9
$VERSIONGUID
  2
{FAEB1C32-E019-11D5-929B-00C0DF256EC4}
  9
$EXTNAMES
290
     1
  9
$PSVPSCALE
 40
0.0
  9
$OLESTARTUP
290
     0
  0
ENDSEC
  0
SECTION
  2
CLASSES
  0
CLASS
  1
ACDBDICTIONARYWDFLT
  2
AcDbDictionaryWithDefault
  3
ObjectDBX Classes
 90
        0
280
     0
281
     0
  0
CLASS
  1
VISUALSTYLE
  2
AcDbVisualStyle
  3
ObjectDBX Classes
 90
     4095
280
     0
281
     0
  0
CLASS
  1
MATERIAL
  2
AcDbMaterial
  3
ObjectDBX Classes
 90
     1153
280
     0
281
     0
  0
CLASS
  1
SCALE
  2
AcDbScale
  3
ObjectDBX Classes
 90
     1153
280
     0
281
     0
  0
CLASS
  1
TABLESTYLE
  2
AcDbTableStyle
  3
ObjectDBX Classes
 90
     4095
280
     0
281
     0
  0
CLASS
  1
MLEADERSTYLE
  2
AcDbMLeaderStyle
  3
ACDB_MLEADERSTYLE_CLASS
 90
     4095
280
     0
281
     0
  0
CLASS
  1
SUN
  2
AcDbSun
  3
SCENEOE
 90
     1153
280
     0
281
     0
  0
CLASS
  1
ACDBPLACEHOLDER
  2
AcDbPlaceHolder
  3
ObjectDBX Classes
 90
        0
280
     0
281
     0
  0
CLASS
  1
LAYOUT
  2
AcDbLayout
  3
ObjectDBX Classes
 90
        0
280
     0
281
     0
  0
ENDSEC
  0
SECTION
  2
TABLES
  0
TABLE
  2
VPORT
  5
8
330
0
100
AcDbSymbolTable
 70
     1
  0
VPORT
  5
29
330
8
100
AcDbSymbolTableRecord
100
AcDbViewportTableRecord
  2
*Active
 70
     0
 10
0.0
 20
0.0
 11
1.0
 21
1.0
 12
4.3
 22
-7.0250000731
 13
0.0
 23
0.0
 14
10.0
 24
10.0
 15
10.0
 25
10.0
 16
0.0
 26
0.0
 36
1.0
 17
0.0
 27
0.0
 37
0.0
 40
27.9989998509
 41
1.8433515581
 42
50.0
 43
0.0
 44
0.0
 50
0.0
 51
0.0
 71
     0
 72
   100
 73
     1
 74
     3
 75
     0
 76
     0
 77
     0
 78
     0
281
     0
 65
     1
110
0.0
120
0.0
130
0.0
111
1.0
121
0.0
131
0.0
112
0.0
122
1.0
132
0.0
 79
     0
146
0.0
  0
ENDTAB
  0
TABLE
  2
LTYPE
  5
5
330
0
100
AcDbSymbolTable
 70
     6
  0
LTYPE
  5
14
330
5
100
AcDbSymbolTableRecord
100
AcDbLinetypeTableRecord
  2
ByBlock
 70
     0
  3

 72
    65
 73
     0
 40
0.0
  0
LTYPE
  5
15
330
5
100
AcDbSymbolTableRecord
100
AcDbLinetypeTableRecord
  2
ByLayer
 70
     0
  3

 72
    65
 73
     0
 40
0.0
  0
LTYPE
  5
16
330
5
100
AcDbSymbolTableRecord
100
AcDbLinetypeTableRecord
  2
Continuous
 70
     0
  3
Solid line
 72
    65
 73
     0
 40
0.0
  0
LTYPE
  5
6E
330
5
100
AcDbSymbolTableRecord
100
AcDbLinetypeTableRecord
  2
HIDDEN
 70
     0
  3
Hidden __ __ __ __ __ __ __ __ __ __ __ __ __ __
 72
    65
 73
     2
 40
1.905
 49
1.27
 74
     0
 49
-0.635
 74
     0
  0
LTYPE
  5
6F
330
5
100
AcDbSymbolTableRecord
100
AcDbLinetypeTableRecord
  2
PHANTOM
 70
     0
  3
Phantom ______  __  __  ______  __  __  ______
 72
    65
 73
     6
 40
12.7
 49
6.35
 74
     0
 49
-1.27
 74
     0
 49
1.27
 74
     0
 49
-1.27
 74
     0
 49
1.27
 74
     0
 49
-1.27
 74
     0
  0
LTYPE
  5
70
330
5
100
AcDbSymbolTableRecord
100
AcDbLinetypeTableRecord
  2
CENTER
 70
     0
  3
Center ____ _ ____ _ ____ _ ____ _ ____ _ ____
 72
    65
 73
     4
 40
10.16
 49
6.35
 74
     0
 49
-1.27
 74
     0
 49
1.27
 74
     0
 49
-1.27
 74
     0
  0
LTYPE
  5
71
330
5
100
AcDbSymbolTableRecord
100
AcDbLinetypeTableRecord
  2
CENTERX2
 70
     0
  3
Center (2x) ________  __  ________  __  _____
 72
    65
 73
     4
 40
20.32
 49
12.7
 74
     0
 49
-2.54
 74
     0
 49
2.54
 74
     0
 49
-2.54
 74
     0
  0
LTYPE
  5
72
330
5
100
AcDbSymbolTableRecord
100
AcDbLinetypeTableRecord
  2
DOT2
 70
     0
  3
Dot (.5x) ........................................
 72
    65
 73
     2
 40
0.635
 49
0.0
 74
     0
 49
-0.635
 74
     0
  0
ENDTAB
  0
TABLE
  2
LAYER
  5
2
330
0
100
AcDbSymbolTable
 70
     1
  0
LAYER
  5
10
330
2
100
AcDbSymbolTableRecord
100
AcDbLayerTableRecord
  2
0
 70
     0
 62
     7
  6
Continuous
370
    -3
390
F
  0
ENDTAB
  0
TABLE
  2
STYLE
  5
3
330
0
100
AcDbSymbolTable
 70
     2
  0
STYLE
  5
11
330
3
100
AcDbSymbolTableRecord
100
AcDbTextStyleTableRecord
  2
Standard
 70
     0
 40
0.0
 41
1.0
 50
0.0
 71
     0
 42
3.5
  3
txt
  4

  0
STYLE
  5
A7
330
3
100
AcDbSymbolTableRecord
100
AcDbTextStyleTableRecord
  2
SLDTEXTSTYLE0
 70
     0
 40
0.0
 41
0.7
 50
0.0
 71
     0
 42
3.5
  3
TXT
  4

  0
ENDTAB
  0
TABLE
  2
VIEW
  5
6
330
0
100
AcDbSymbolTable
 70
     0
  0
ENDTAB
  0
TABLE
  2
UCS
  5
7
330
0
100
AcDbSymbolTable
 70
     0
  0
ENDTAB
  0
TABLE
  2
APPID
  5
9
330
0
100
AcDbSymbolTable
 70
     1
  0
APPID
  5
12
330
9
100
AcDbSymbolTableRecord
100
AcDbRegAppTableRecord
  2
ACAD
 70
     0
  0
ENDTAB
  0
TABLE
  2
DIMSTYLE
  5
A
330
0
100
AcDbSymbolTable
 70
     1
100
AcDbDimStyleTable
  0
DIMSTYLE
105
27
330
A
100
AcDbSymbolTableRecord
100
AcDbDimStyleTableRecord
  2
ISO-25
 70
     0
 41
2.5
 42
0.625
 43
3.75
 44
1.25
 73
     0
 74
     0
 77
     1
 78
     8
140
2.5
141
2.5
143
0.0393700787
147
0.625
171
     3
172
     1
178
     0
271
     2
272
     2
274
     3
278
    44
283
     0
284
     8
340
11
  0
ENDTAB
  0
TABLE
  2
BLOCK_RECORD
  5
1
330
0
100
AcDbSymbolTable
 70
     1
  0
BLOCK_RECORD
  5
1F
330
1
100
AcDbSymbolTableRecord
100
AcDbBlockTableRecord
  2
*Model_Space
340
22
  0
BLOCK_RECORD
  5
1B
330
1
100
AcDbSymbolTableRecord
100
AcDbBlockTableRecord
  2
*Paper_Space
340
1E
  0
BLOCK_RECORD
  5
23
330
1
100
AcDbSymbolTableRecord
100
AcDbBlockTableRecord
  2
*Paper_Space0
340
26
  0
ENDTAB
  0
ENDSEC
  0
SECTION
  2
BLOCKS
  0
BLOCK
  5
20
330
1F
100
AcDbEntity
  8
0
100
AcDbBlockBegin
  2
*Model_Space
 70
     0
 10
0.0
 20
0.0
 30
0.0
  3
*Model_Space
  1

  0
ENDBLK
  5
21
330
1F
100
AcDbEntity
  8
0
100
AcDbBlockEnd
  0
BLOCK
  5
1C
330
1B
100
AcDbEntity
 67
     1
  8
0
100
AcDbBlockBegin
  2
*Paper_Space
 70
     0
 10
0.0
 20
0.0
 30
0.0
  3
*Paper_Space
  1

  0
ENDBLK
  5
1D
330
1B
100
AcDbEntity
 67
     1
  8
0
100
AcDbBlockEnd
  0
BLOCK
  5
24
330
23
100
AcDbEntity
  8
0
100
AcDbBlockBegin
  2
*Paper_Space0
 70
     0
 10
0.0
 20
0.0
 30
0.0
  3
*Paper_Space0
  1

  0
ENDBLK
  5
25
330
23
100
AcDbEntity
  8
0
100
AcDbBlockEnd
  0
ENDSEC
  0
SECTION
  2
ENTITIES
  0
SPLINE
  5
73
330
1F
100
AcDbEntity
  8
0
  6
Continuous
 62
     7
370
    25
100
AcDbSpline
210
0.0
220
0.0
230
1.0
 70
     8
 71
     3
 72
     8
 73
     4
 74
     0
 42
0.00000001
 43
0.00000001
 40
0.0
 40
0.0
 40
0.0
 40
0.0
 40
1.0
 40
1.0
 40
1.0
 40
1.0
 10
-3.096718436183697
 20
-20.74999999999096
 30
0.0
 10
-3.173914303023416
 20
-20.38365501605576
 30
0.0
 10
-3.477128961047268
 20
-19.61558104376279
 30
0.0
 10
-3.548267917749075
 20
-19.54248864846805
 30
0.0
  0
LINE
  5
74
330
1F
100
AcDbEntity
  8
0
  6
Continuous
 62
     7
370
    25
100
AcDbLine
 10
15.8880497907
 20
-20.75
 30
0.0
 11
-3.0967184362
 21
-20.75
 31
0.0
  0
SPLINE
  5
75
330
1F
100
AcDbEntity
  8
0
  6
Continuous
 62
     7
370
    25
100
AcDbSpline
210
0.0
220
0.0
230
1.0
 70
     8
 71
     3
 72
     8
 73
     4
 74
     0
 42
0.00000001
 43
0.00000001
 40
0.0
 40
0.0
 40
0.0
 40
0.0
 40
1.0
 40
1.0
 40
1.0
 40
1.0
 10
16.4357864376269
 20
-19.52322330470335
 30
0.0
 10
16.35960173178247
 20
-19.59940801054778
 30
0.0
 10
15.98936458582839
 20
-20.39594592815342
 30
0.0
 10
15.88804979066454
 20
-20.74999999999917
 30
0.0
  0
LINE
  5
76
330
1F
100
AcDbEntity
  8
0
  6
Continuous
 62
     7
370
    25
100
AcDbLine
 10
16.8
 20
-19.1590097423
 30
0.0
 11
16.4357864376
 21
-19.5232233047
 31
0.0
  0
LINE
  5
77
330
1F
100
AcDbEntity
  8
0
  6
Continuous
 62
     7
370
    25
100
AcDbLine
 10
16.8
 20
-17.0
 30
0.0
 11
16.8
 21
-19.1590097423
 31
0.0
  0
LINE
  5
78
330
1F
100
AcDbEntity
  8
0
  6
Continuous
 62
     7
370
    25
100
AcDbLine
 10
3.9313886612
 20
-17.0
 30
0.0
 11
16.8
 21
-17.0
 31
0.0
  0
LINE
  5
79
330
1F
100
AcDbEntity
  8
0
  6
Continuous
 62
     7
370
    25
100
AcDbLine
 10
3.9313886612
 20
-14.3238293537
 30
0.0
 11
3.9313886612
 21
-17.0
 31
0.0
  0
SPLINE
  5
7A
330
1F
100
AcDbEntity
  8
0
  6
Continuous
 62
     7
370
    25
100
AcDbSpline
210
0.0
220
0.0
230
1.0
 70
     8
 71
     2
 72
    10
 73
     7
 74
     0
 42
0.00000001
 43
0.00000001
 40
0.0
 40
0.0
 40
0.0
 40
0.3333333333333333
 40
0.3333333333333333
 40
0.5
 40
0.5
 40
1.0
 40
1.0
 40
1.0
 10
3.996264068490215
 20
-13.0
 30
0.0
 10
3.982631863322764
 20
-13.31548738801577
 30
0.0
 10
3.975701256291355
 20
-13.46929027512198
 30
0.0
 10
3.970143336244953
 20
-13.59263071926605
 30
0.0
 10
3.965182608329436
 20
-13.69710237742059
 30
0.0
 10
3.947342738851527
 20
-14.07280545514586
 30
0.0
 10
3.931388661155783
 20
-14.32382935371666
 30
0.0
  0
SPLINE
  5
7B
330
1F
100
AcDbEntity
  8
0
  6
Continuous
 62
     7
370
    25
100
AcDbSpline
210
0.0
220
0.0
230
1.0
 70
     8
 71
     3
 72
    16
 73
    12
 74
     0
 42
0.00000001
 43
0.00000001
 40
0.0
 40
0.0
 40
0.0
 40
0.0
 40
0.141752779814426
 40
0.3077917877896751
 40
0.4982396423956158
 40
0.5570667073478544
 40
0.625812922849796
 40
0.7044791229282924
 40
0.7930656833563539
 40
0.8915726845576619
 40
1.0
 40
1.0
 40
1.0
 40
1.0
 10
3.475812133434612
 20
-12.5000893015154
 30
0.0
 10
3.517933512233451
 20
-12.5292778378912
 30
0.0
 10
3.609392843765667
 20
-12.59265572582985
 30
0.0
 10
3.734308895889647
 20
-12.68158598872695
 30
0.0
 10
3.819455274990912
 20
-12.75070200694149
 30
0.0
 10
3.873067979426805
 20
-12.80095286576262
 30
0.0
 10
3.904036373459329
 20
-12.8329005534524
 30
0.0
 10
3.934377775997921
 20
-12.86894015034126
 30
0.0
 10
3.961775368204469
 20
-12.90905263495617
 30
0.0
 10
3.984592871781916
 20
-12.95326223549843
 30
0.0
 10
3.992251289514187
 20
-12.98393066936786
 30
0.0
 10
3.996264068490214
 20
-13.0
 30
0.0
  0
SPLINE
  5
7C
330
1F
100
AcDbEntity
  8
0
  6
Continuous
 62
     7
370
    25
100
AcDbSpline
210
0.0
220
0.0
230
1.0
 70
     8
 71
     3
 72
    19
 73
    15
 74
     0
 42
0.00000001
 43
0.00000001
 40
0.0
 40
0.0
 40
0.0
 40
0.0
 40
0.0984034898840749
 40
0.1974556656450018
 40
0.2973548992251341
 40
0.3982945677213995
 40
0.500462139648695
 40
0.6273840861785372
 40
0.7506161806579814
 40
0.8038623841352011
 40
0.8553756116725274
 40
0.905201659599912
 40
0.9533911396173185
 40
1.0
 40
1.0
 40
1.0
 40
1.0
 10
1.121773442681566
 20
-12.29718329042866
 30
0.0
 10
1.218023931483532
 20
-12.28218219671601
 30
0.0
 10
1.411159402160822
 20
-12.25208112054559
 30
0.0
 10
1.694127598138047
 20
-12.22429571310973
 30
0.0
 10
1.970571385678916
 20
-12.20903755890916
 30
0.0
 10
2.238050755987614
 20
-12.20760836400576
 30
0.0
 10
2.514086144364753
 20
-12.22046467065192
 30
0.0
 10
2.787830785618958
 20
-12.25147377630151
 30
0.0
 10
3.001026941196278
 20
-12.29631937785247
 30
0.0
 10
3.147953423627583
 20
-12.34028573140801
 30
0.0
 10
3.242116656331088
 20
-12.37458720460197
 30
0.0
 10
3.327760021764552
 20
-12.41252420811542
 30
0.0
 10
3.405827196127318
 20
-12.45358696166454
 30
0.0
 10
3.4527445799169
 20
-12.48476178598876
 30
0.0
 10
3.475812133434612
 20
-12.5000893015154
 30
0.0
  0
SPLINE
  5
7D
330
1F
100
AcDbEntity
  8
0
  6
Continuous
 62
     7
370
    25
100
AcDbSpline
210
0.0
220
0.0
230
1.0
 70
     8
 71
     3
 72
    17
 73
    13
 74
     0
 42
0.00000001
 43
0.00000001
 40
0.0
 40
0.0
 40
0.0
 40
0.0
 40
0.1228002491319502
 40
0.2470261499635077
 40
0.3728846465800538
 40
0.5005747429639964
 40
0.5857249785577232
 40
0.6700321223278696
 40
0.7535534821251352
 40
0.8363479977436008
 40
0.9184761741041617
 40
1.0
 40
1.0
 40
1.0
 40
1.0
 10
-1.121773442681905
 20
-12.29718329042866
 30
0.0
 10
-1.032509975698254
 20
-12.31101568104237
 30
0.0
 10
-0.8529467359065119
 20
-12.33884104965726
 30
0.0
 10
-0.5743671028741001
 20
-12.36600597075639
 30
0.0
 10
-0.2888432831915611
 20
-12.38283711051434
 30
0.0
 10
-0.0309633591418818
 20
-12.38760599181632
 30
0.0
 10
0.1951814239042913
 20
-12.38472590643762
 30
0.0
 10
0.3871414378684079
 20
-12.37728752623323
 30
0.0
 10
0.5761845153323881
 20
-12.36493304830049
 30
0.0
 10
0.7618438978237833
 20
-12.34752947059636
 30
0.0
 10
0.9440482952204369
 20
-12.32555602828065
 30
0.0
 10
1.062677755769329
 20
-12.30661755708646
 30
0.0
 10
1.121773442681566
 20
-12.29718329042866
 30
0.0
  0
SPLINE
  5
7E
330
1F
100
AcDbEntity
  8
0
  6
Continuous
 62
     7
370
    25
100
AcDbSpline
210
0.0
220
0.0
230
1.0
 70
     8
 71
     3
 72
    20
 73
    16
 74
     0
 42
0.00000001
 43
0.00000001
 40
0.0
 40
0.0
 40
0.0
 40
0.0
 40
0.0792443758313561
 40
0.1630427047824855
 40
0.2516351091189744
 40
0.3741684968235343
 40
0.5002856936005506
 40
0.5642040987018065
 40
0.6276154338344793
 40
0.6905643419887126
 40
0.7530964566283744
 40
0.8152583291939941
 40
0.8770973473256822
 40
0.9386616442529616
 40
1.0
 40
1.0
 40
1.0
 40
1.0
 10
-3.475812133434608
 20
-12.50008930151542
 30
0.0
 10
-3.436008847735148
 20
-12.4746252371876
 30
0.0
 10
-3.354114892592124
 20
-12.42223375982146
 30
0.0
 10
-3.208606573732811
 20
-12.35985081871516
 30
0.0
 10
-3.021706898360561
 20
-12.30041725214827
 30
0.0
 10
-2.784244449004719
 20
-12.25099427959701
 30
0.0
 10
-2.541155259182776
 20
-12.22360810165571
 30
0.0
 10
-2.331632816229084
 20
-12.21178481367467
 30
0.0
 10
-2.168499835640576
 20
-12.20805579022299
 30
0.0
 10
-2.001321563969015
 20
-12.20959931105809
 30
0.0
 10
-1.830599651499228
 20
-12.21641034226803
 30
0.0
 10
-1.656847917074932
 20
-12.22845716754148
 30
0.0
 10
-1.48051877663453
 20
-12.24587179405487
 30
0.0
 10
-1.302247843981192
 20
-12.26816222452834
 30
0.0
 10
-1.181857802428854
 20
-12.28752146497729
 30
0.0
 10
-1.121773442681905
 20
-12.29718329042866
 30
0.0
  0
SPLINE
  5
7F
330
1F
100
AcDbEntity
  8
0
  6
Continuous
 62
     7
370
    25
100
AcDbSpline
210
0.0
220
0.0
230
1.0
 70
     8
 71
     3
 72
    15
 73
    11
 74
     0
 42
0.00000001
 43
0.00000001
 40
0.0
 40
0.0
 40
0.0
 40
0.0
 40
0.2062912389912135
 40
0.373042374259448
 40
0.5002445868521355
 40
0.6178576284387229
 40
0.7266155119605711
 40
0.8265390338578436
 40
0.9176552293579316
 40
1.0
 40
1.0
 40
1.0
 40
1.0
 10
-3.996264068490208
 20
-13.0
 30
0.0
 10
-3.986894986604379
 20
-12.96937225491532
 30
0.0
 10
-3.969952606654497
 20
-12.91398722353698
 30
0.0
 10
-3.910700639725604
 20
-12.83817637097557
 30
0.0
 10
-3.845779517114907
 20
-12.77408215640668
 30
0.0
 10
-3.777296733395388
 20
-12.71621394722185
 30
0.0
 10
-3.703974321002468
 20
-12.66028234077078
 30
0.0
 10
-3.628154004859281
 20
-12.60592601410704
 30
0.0
 10
-3.552779561731758
 20
-12.55365402538091
 30
0.0
 10
-3.500588220592437
 20
-12.51733197541577
 30
0.0
 10
-3.475812133434608
 20
-12.50008930151542
 30
0.0
  0
SPLINE
  5
80
330
1F
100
AcDbEntity
  8
0
  6
Continuous
 62
     7
370
    25
100
AcDbSpline
210
0.0
220
0.0
230
1.0
 70
     8
 71
     2
 72
    10
 73
     7
 74
     0
 42
0.00000001
 43
0.00000001
 40
0.0
 40
0.0
 40
0.0
 40
0.5
 40
0.5
 40
0.6666666666666667
 40
0.6666666666666667
 40
1.0
 40
1.0
 40
1.0
 10
-3.931388661155777
 20
-14.32382935371666
 30
0.0
 10
-3.947379083503286
 20
-14.07223360283621
 30
0.0
 10
-3.965174403177884
 20
-13.69734792769101
 30
0.0
 10
-3.970170820483809
 20
-13.59209074157186
 30
0.0
 10
-3.975712634375379
 20
-13.4690660804172
 30
0.0
 10
-3.982656969482577
 20
-13.31490636119481
 30
0.0
 10
-3.99626406849021
 20
-13.0
 30
0.0
  0
LINE
  5
81
330
1F
100
AcDbEntity
  8
0
  6
Continuous
 62
     7
370
    25
100
AcDbLine
 10
-3.9313886612
 20
-19.1590097424
 30
0.0
 11
-3.9313886612
 21
-14.3238293537
 31
0.0
  0
LINE
  5
82
330
1F
100
AcDbEntity
  8
0
  6
Continuous
 62
     7
370
    25
100
AcDbLine
 10
-3.5482679177
 20
-19.5424886485
 30
0.0
 11
-3.9313886612
 21
-19.1590097424
 31
0.0
  0
LINE
  5
83
330
1F
100
AcDbEntity
  8
0
  6
Continuous
 62
     7
370
    25
100
AcDbLine
 10
-14.05
 20
0.0
 30
0.0
 11
22.65
 21
0.0
 31
0.0
  0
SPLINE
  5
84
330
1F
100
AcDbEntity
  8
0
  6
Continuous
 62
     7
370
    25
100
AcDbSpline
210
0.0
220
0.0
230
1.0
 70
     8
 71
     3
 72
    35
 73
    31
 74
     0
 42
0.00000001
 43
0.00000001
 40
0.0
 40
0.0
 40
0.0
 40
0.0
 40
0.0005728166002826
 40
0.0011456332005652
 40
0.0014320415007065
 40
0.0018616539509185
 40
0.0018616539509185
 40
0.0020048581009892
 40
0.0020048581009892
 40
0.0021480622510598
 40
0.0021480622510598
 40
0.0022912664011305
 40
0.0022912664011305
 40
0.0028640830014131
 40
0.0028640830014131
 40
0.0034368996016957
 40
0.0040097162019783
 40
0.0042961245021196
 40
0.0042961245021196
 40
0.0045825328022609
 40
0.0045825328022609
 40
0.0048689411024022
 40
0.0048689411024022
 40
0.0054417577026848
 40
0.0057281660028262
 40
0.0068737992033914
 40
0.007446615803674
 40
0.0080194324039566
 40
0.0080194324039566
 40
0.0091650656045219
 40
0.0091650656045219
 40
0.0091650656045219
 40
0.0091650656045219
 10
-6.58809675752895
 20
4.799999587984401
 30
0.0
 10
-6.781857584246634
 20
4.799994049614015
 30
0.0
 10
-7.166038610175725
 20
4.780627179897498
 30
0.0
 10
-7.638530137938467
 20
4.711602965575768
 30
0.0
 10
-8.05883008550767
 20
4.620844453097873
 30
0.0
 10
-8.29008619395528
 20
4.557421983892556
 30
0.0
 10
-8.47404040302232
 20
4.500596318601917
 30
0.0
 10
-8.519948627017955
 20
4.485879448997603
 30
0.0
 10
-8.611561701209984
 20
4.455447455429681
 30
0.0
 10
-8.657344129299261
 20
4.439703796720583
 30
0.0
 10
-8.748313939618724
 20
4.407365671367808
 30
0.0
 10
-8.793569791603794
 20
4.390751642735499
 30
0.0
 10
-9.018588061138177
 20
4.30553163750447
 30
0.0
 10
-9.194843060765486
 20
4.230473380508879
 30
0.0
 10
-9.540406321253624
 20
4.067828782038828
 30
0.0
 10
-9.879055370281153
 20
3.892648901473589
 30
0.0
 10
-10.28649703708449
 20
3.644902804130705
 30
0.0
 10
-10.52438559357933
 20
3.484332226292886
 30
0.0
 10
-10.68157679291472
 20
3.374744886894185
 30
0.0
 10
-10.7594889665249
 20
3.31866745486246
 30
0.0
 10
-10.91390420828868
 20
3.204136834623334
 30
0.0
 10
-10.99057414346804
 20
3.145550292035533
 30
0.0
 10
-11.21756966665061
 20
2.96718105365057
 30
0.0
 10
-11.43895458145435
 20
2.783327386378501
 30
0.0
 10
-11.93855407748179
 20
2.33782228494458
 30
0.0
 10
-12.41208246518453
 20
1.866905081943403
 30
0.0
 10
-12.92917189521063
 20
1.305244859235476
 30
0.0
 10
-13.18164938708355
 20
1.018495518593728
 30
0.0
 10
-13.55730028126795
 20
0.5854028025476996
 30
0.0
 10
-13.80368423461932
 20
0.292669146875369
 30
0.0
 10
-14.05
 20
0.0000000000000006
 30
0.0
  0
LINE
  5
85
330
1F
100
AcDbEntity
  8
0
  6
Continuous
 62
     7
370
    25
100
AcDbLine
 10
15.1880967575
 20
4.8
 30
0.0
 11
-6.5880967575
 21
4.799999588
 31
0.0
  0
SPLINE
  5
86
330
1F
100
AcDbEntity
  8
0
  6
Continuous
 62
     7
370
    25
100
AcDbSpline
210
0.0
220
0.0
230
1.0
 70
     8
 71
     3
 72
    35
 73
    31
 74
     0
 42
0.00000001
 43
0.00000001
 40
0.0
 40
0.0
 40
0.0
 40
0.0
 40
0.0011456332005652
 40
0.0011456332005652
 40
0.0017184498008479
 40
0.0022912664011305
 40
0.0034368996016957
 40
0.0040097162019783
 40
0.0042961245021196
 40
0.0042961245021196
 40
0.004582532802261
 40
0.004582532802261
 40
0.0048689411024023
 40
0.0048689411024023
 40
0.0051553494025436
 40
0.0057281660028262
 40
0.0063009826031088
 40
0.0063009826031088
 40
0.0068737992033914
 40
0.0068737992033914
 40
0.0070170033534621
 40
0.0070170033534621
 40
0.0071602075035327
 40
0.0071602075035327
 40
0.0073034116536034
 40
0.0074466158036741
 40
0.0077330241038154
 40
0.0080194324039567
 40
0.0085922490042393
 40
0.0091650656045219
 40
0.0091650656045219
 40
0.0091650656045219
 40
0.0091650656045219
 10
22.65
 20
0.0000000000000006
 30
0.0
 10
22.40368426447765
 20
0.2926691719970497
 30
0.0
 10
22.1573003409262
 20
0.5854028527967207
 30
0.0
 10
21.78164948701284
 20
1.01849560601791
 30
0.0
 10
21.52917181770008
 20
1.305244730066214
 30
0.0
 10
21.01208399770774
 20
1.86690565394435
 30
0.0
 10
20.47090677615018
 20
2.405094557537073
 30
0.0
 10
19.96609727450422
 20
2.845521746384109
 30
0.0
 10
19.7419047002508
 20
3.026637726241774
 30
0.0
 10
19.5905743517752
 20
3.145550562038819
 30
0.0
 10
19.51390441642246
 20
3.204137109655488
 30
0.0
 10
19.3594891736755
 20
3.318667739725539
 30
0.0
 10
19.28157699925649
 20
3.374745176570759
 30
0.0
 10
19.1243857976972
 20
3.484332525376068
 30
0.0
 10
18.88649707548985
 20
3.64490282426326
 30
0.0
 10
18.47905538614635
 20
3.89264892266698
 30
0.0
 10
18.1404064964571
 20
4.067829131207364
 30
0.0
 10
17.79484322081815
 20
4.230473743638284
 30
0.0
 10
17.6185882126752
 20
4.305532007076613
 30
0.0
 10
17.39356993142605
 20
4.390752019622638
 30
0.0
 10
17.34831407704315
 20
4.407366049681039
 30
0.0
 10
17.2573442618244
 20
4.439704177809609
 30
0.0
 10
17.21156183122965
 20
4.455447837870088
 30
0.0
 10
17.1199487519483
 20
4.485879834050194
 30
0.0
 10
17.02813595154632
 20
4.515312226909782
 30
0.0
 10
16.84383665271661
 20
4.570104718021876
 30
0.0
 10
16.61212946912774
 20
4.630928725555734
 30
0.0
 10
16.23853046353383
 20
4.711602964831911
 30
0.0
 10
15.76603833553437
 20
4.780626389573655
 30
0.0
 10
15.38185759801875
 20
4.799994461629137
 30
0.0
 10
15.18809675752895
 20
4.799999999999998
 30
0.0
  0
SPLINE
  5
87
330
1F
100
AcDbEntity
  8
0
  6
Continuous
 62
     7
370
    25
100
AcDbSpline
210
0.0
220
0.0
230
1.0
 70
     8
 71
     3
 72
    31
 73
    27
 74
     0
 42
0.00000001
 43
0.00000001
 40
0.0
 40
0.0
 40
0.0
 40
0.0
 40
0.0003663972839067
 40
0.0007327945678133
 40
0.00109919185172
 40
0.00109919185172
 40
0.0012823904936733
 40
0.0012823904936733
 40
0.0014655891356267
 40
0.0014655891356267
 40
0.00164878777758
 40
0.00164878777758
 40
0.0018319864195333
 40
0.00219838370344
 40
0.0025647809873467
 40
0.0029311782712534
 40
0.0029311782712534
 40
0.00329757555516
 40
0.00329757555516
 40
0.0036639728390667
 40
0.0036639728390667
 40
0.0040303701229734
 40
0.00439676740688
 40
0.0051295619746934
 40
0.0051295619746934
 40
0.0058623565425067
 40
0.0058623565425067
 40
0.0058623565425067
 40
0.0058623565425067
 10
-8.98541709515976
 20
-3.70000036039864
 30
0.0
 10
-9.109140066450559
 20
-3.700003863784312
 30
0.0
 10
-9.35469505983134
 20
-3.711687537151712
 30
0.0
 10
-9.717894139786464
 20
-3.760912008081364
 30
0.0
 10
-9.95687144430442
 20
-3.813213109314147
 30
0.0
 10
-10.13499832347589
 20
-3.859269132867616
 30
0.0
 10
-10.19419829971423
 20
-3.875764192886703
 30
0.0
 10
-10.3122046107519
 20
-3.910951433731485
 30
0.0
 10
-10.37112965527695
 20
-3.929688401562691
 30
0.0
 10
-10.4877186934431
 20
-3.968991621052174
 30
0.0
 10
-10.54555361953128
 20
-3.989605742668445
 30
0.0
 10
-10.66026308864893
 20
-4.032621291551472
 30
0.0
 10
-10.8309352589516
 20
-4.099840320761601
 30
0.0
 10
-11.10882268413138
 20
-4.224587624219006
 30
0.0
 10
-11.43288603554976
 20
-4.392490733597714
 30
0.0
 10
-11.64331247395598
 20
-4.515301264817814
 30
0.0
 10
-11.85123651960369
 20
-4.642957740759999
 30
0.0
 10
-11.95396591857671
 20
-4.709224083314384
 30
0.0
 10
-12.15714207267576
 20
-4.84597277088966
 30
0.0
 10
-12.25777986879993
 20
-4.916598824929244
 30
0.0
 10
-12.45621416057965
 20
-5.060865377746942
 30
0.0
 10
-12.65207439875164
 20
-5.208309145491026
 30
0.0
 10
-13.03514291767041
 20
-5.51362450199678
 30
0.0
 10
-13.31473916824924
 20
-5.751985736688239
 30
0.0
 10
-13.68408296113717
 20
-6.07391874473345
 30
0.0
 10
-13.8670958673241
 20
-6.237008197994147
 30
0.0
 10
-14.05
 20
-6.399999999999999
 30
0.0
  0
LINE
  5
88
330
1F
100
AcDbEntity
  8
0
  6
Continuous
 62
     7
370
    25
100
AcDbLine
 10
-2.7129319933
 20
-3.7
 30
0.0
 11
-8.9854170952
 21
-3.7000003604
 31
0.0
  0
SPLINE
  5
89
330
1F
100
AcDbEntity
  8
0
  6
Continuous
 62
     7
370
    25
100
AcDbSpline
210
0.0
220
0.0
230
1.0
 70
     8
 71
     3
 72
     8
 73
     4
 74
     0
 42
0.00000001
 43
0.00000001
 40
0.0
 40
0.0
 40
0.0
 40
0.0
 40
0.0006562866048921
 40
0.0006562866048921
 40
0.0006562866048921
 40
0.0006562866048921
 10
-2.057911562725665
 20
-3.740747311031549
 30
0.0
 10
-2.27556985076803
 20
-3.716203923483529
 30
0.0
 10
-2.493748551666785
 20
-3.700026267185259
 30
0.0
 10
-2.712931993250115
 20
-3.699999999999998
 30
0.0
  0
LINE
  5
8A
330
1F
100
AcDbEntity
  8
0
  6
Continuous
 62
     7
370
    25
100
AcDbLine
 10
-2.0579115627
 20
-3.740747311
 30
0.0
 11
-2.0212569073
 21
-3.7451254595
 31
0.0
  0
SPLINE
  5
8B
330
1F
100
AcDbEntity
  8
0
  6
Continuous
 62
     7
370
    25
100
AcDbSpline
210
0.0
220
0.0
230
1.0
 70
     8
 71
     3
 72
    48
 73
    44
 74
     0
 42
0.00000001
 43
0.00000001
 40
0.0
 40
0.0
 40
0.0
 40
0.0
 40
0.0002999409836634
 40
0.0005998819673267
 40
0.0007498524591584
 40
0.0008998229509901
 40
0.0008998229509901
 40
0.0010497934428218
 40
0.0010497934428218
 40
0.0011997639346534
 40
0.0011997639346534
 40
0.0013497344264851
 40
0.0014997049183168
 40
0.0017996459019801
 40
0.0019496163938118
 40
0.0019496163938118
 40
0.0020995868856435
 40
0.0020995868856435
 40
0.0021745721315593
 40
0.0021745721315593
 40
0.0022495573774752
 40
0.0022495573774752
 40
0.0023995278693069
 40
0.0023995278693069
 40
0.0026994688529702
 40
0.0028494393448019
 40
0.0029994098366336
 40
0.0031493803284653
 40
0.0031493803284653
 40
0.0032993508202969
 40
0.0032993508202969
 40
0.0034493213121286
 40
0.0034493213121286
 40
0.0035992918039603
 40
0.0038992327876236
 40
0.0038992327876236
 40
0.004199173771287
 40
0.004199173771287
 40
0.0043491442631187
 40
0.0043491442631187
 40
0.0044991147549504
 40
0.0044991147549504
 40
0.0047990557386137
 40
0.0047990557386137
 40
0.0047990557386137
 40
0.0047990557386137
 10
0.9587590118774971
 20
-7.00000000000021
 30
0.0
 10
0.9587566032570762
 20
-6.898582021647449
 30
0.0
 10
0.949032423022462
 20
-6.697400463580344
 30
0.0
 10
0.9134020141929887
 20
-6.449919386101254
 30
0.0
 10
0.8709448190934347
 20
-6.254309536345127
 30
0.0
 10
0.8450371682037301
 20
-6.157301064847021
 30
0.0
 10
0.8167654467842181
 20
-6.060694997815249
 30
0.0
 10
0.8014558863616491
 20
-6.012617939717281
 30
0.0
 10
0.7683972630395621
 20
-5.916774299631311
 30
0.0
 10
0.7507640785582711
 20
-5.86935463375211
 30
0.0
 10
0.7134313353686941
 20
-5.77575452728941
 30
0.0
 10
0.6739986592076957
 20
-5.683296121700796
 30
0.0
 10
0.5868961976916021
 20
-5.502920783783214
 30
0.0
 10
0.4875848850080567
 20
-5.329252891475313
 30
0.0
 10
0.4039828659151922
 20
-5.20401537037793
 30
0.0
 10
0.3462032546945752
 20
-5.121647688364919
 30
0.0
 10
0.3163028770829452
 20
-5.081040714887331
 30
0.0
 10
0.2698649695701447
 20
-5.02093874766144
 30
0.0
 10
0.2541270334011563
 20
-5.0010500069251
 30
0.0
 10
0.2222941602422387
 20
-4.96175914532427
 30
0.0
 10
0.2061703150113103
 20
-4.942319171074669
 30
0.0
 10
0.1572352131221847
 20
-4.884674858341049
 30
0.0
 10
0.1238158602077713
 20
-4.847087707077559
 30
0.0
 10
0.0212831970120074
 20
-4.736891579108921
 30
0.0
 10
-0.0858684357109959
 20
-4.631718566744855
 30
0.0
 10
-0.2377631882427729
 20
-4.50140020532846
 30
0.0
 10
-0.3562049259928593
 20
-4.408614991079554
 30
0.0
 10
-0.4382095250645802
 20
-4.350072518726075
 30
0.0
 10
-0.5217240201620177
 20
-4.293221724015805
 30
0.0
 10
-0.5643384134510586
 20
-4.265586911466261
 30
0.0
 10
-0.6502203536907825
 20
-4.212568183048871
 30
0.0
 10
-0.6936477144591716
 20
-4.187071332150079
 30
0.0
 10
-0.7813624941144166
 20
-4.13812879593431
 30
0.0
 10
-0.9142727606239015
 20
-4.067759667139149
 30
0.0
 10
-1.051136292420234
 20
-4.006385708275676
 30
0.0
 10
-1.23708823290989
 20
-3.932443022549305
 30
0.0
 10
-1.331819192147652
 20
-3.899416449431626
 30
0.0
 10
-1.47646954833522
 20
-3.855833192104556
 30
0.0
 10
-1.525158729680796
 20
-3.842292139409346
 30
0.0
 10
-1.62332755815428
 20
-3.817230917340466
 30
0.0
 10
-1.67259014251124
 20
-3.805766396441941
 30
0.0
 10
-1.821009359203445
 20
-3.774485433906436
 30
0.0
 10
-1.920749568959495
 20
-3.757794524708465
 30
0.0
 10
-2.021256907281245
 20
-3.745125459478916
 30
0.0
  0
SPLINE
  5
8C
330
1F
100
AcDbEntity
  8
0
  6
Continuous
 62
     7
370
    25
100
AcDbSpline
210
0.0
220
0.0
230
1.0
 70
     8
 71
     3
 72
    40
 73
    36
 74
     0
 42
0.00000001
 43
0.00000001
 40
0.0
 40
0.0
 40
0.0
 40
0.0
 40
0.0000973087838573
 40
0.0001946175677146
 40
0.0002919263515719
 40
0.0003892351354292
 40
0.0005838527031438
 40
0.0005838527031438
 40
0.0006811614870011
 40
0.0006811614870011
 40
0.0007784702708584
 40
0.0007784702708584
 40
0.000973087838573
 40
0.0011677054062876
 40
0.0013623229740021
 40
0.0014596317578594
 40
0.0014596317578594
 40
0.0015082861497881
 40
0.0015082861497881
 40
0.0015569405417167
 40
0.0015569405417167
 40
0.0017515581094313
 40
0.0019461756771459
 40
0.0021407932448605
 40
0.0021407932448605
 40
0.0022381020287178
 40
0.0022381020287178
 40
0.0023354108125751
 40
0.0023354108125751
 40
0.0024327195964324
 40
0.0024327195964324
 40
0.0025300283802897
 40
0.0027246459480043
 40
0.0027246459480043
 40
0.0031138810834335
 40
0.0031138810834335
 40
0.0031138810834335
 40
0.0031138810834335
 10
2.567630644701591
 20
-9.45314768078244
 30
0.0
 10
2.536263251465377
 20
-9.443031711988032
 30
0.0
 10
2.474542295130337
 20
-9.420899866677459
 30
0.0
 10
2.384583537145923
 20
-9.382787228697904
 30
0.0
 10
2.296995377810584
 20
-9.340232112095874
 30
0.0
 10
2.183163757129064
 20
-9.277963716155712
 30
0.0
 10
2.100940016266613
 20
-9.225331295103745
 30
0.0
 10
2.02073393374983
 20
-9.168971563536036
 30
0.0
 10
1.994287917129515
 20
-9.149518039277378
 30
0.0
 10
1.942275006960587
 20
-9.109534356001362
 30
0.0
 10
1.916805300258522
 20
-9.089082216494203
 30
0.0
 10
1.841832693577987
 20
-9.026310032850391
 30
0.0
 10
1.745793954654925
 20
-8.938926156663058
 30
0.0
 10
1.612902594949112
 20
-8.797358211091288
 30
0.0
 10
1.511227129981347
 20
-8.670861460454933
 30
0.0
 10
1.454291959876817
 20
-8.59114936334452
 30
0.0
 10
1.426502159691696
 20
-8.550646693856102
 30
0.0
 10
1.417345769935922
 20
-8.537027820032149
 30
0.0
 10
1.399324958981492
 20
-8.50967324180735
 30
0.0
 10
1.390453545001429
 20
-8.49592877913634
 30
0.0
 10
1.346803550328705
 20
-8.426891376921578
 30
0.0
 10
1.281396688275528
 20
-8.314360910470786
 30
0.0
 10
1.196148126414705
 20
-8.139605132647928
 30
0.0
 10
1.147717416841179
 20
-8.019193092858684
 30
0.0
 10
1.114541103516528
 20
-7.927431111888518
 30
0.0
 10
1.104005117057945
 20
-7.89659392507848
 30
0.0
 10
1.083992644666905
 20
-7.83444731517528
 30
0.0
 10
1.074503677988781
 20
-7.80309365179026
 30
0.0
 10
1.056631257371066
 20
-7.740038405063231
 30
0.0
 10
1.048279025439296
 20
-7.708454270128052
 30
0.0
 10
1.032701467292088
 20
-7.645100718335835
 30
0.0
 10
1.011036454668784
 20
-7.549829948124975
 30
0.0
 10
0.9944031467535595
 20
-7.453848064258638
 30
0.0
 10
0.967747829732926
 20
-7.260949943011124
 30
0.0
 10
0.9587701729597843
 20
-7.131108574004297
 30
0.0
 10
0.9587590118766132
 20
-6.999999999999999
 30
0.0
  0
SPLINE
  5
8D
330
1F
100
AcDbEntity
  8
0
  6
Continuous
 62
     7
370
    25
100
AcDbSpline
210
0.0
220
0.0
230
1.0
 70
     8
 71
     3
 72
     8
 73
     4
 74
     0
 42
0.00000001
 43
0.00000001
 40
0.0
 40
0.0
 40
0.0
 40
0.0
 40
0.0005193196828798
 40
0.0005193196828798
 40
0.0005193196828798
 40
0.0005193196828798
 10
3.066229095443815
 20
-9.598380314662728
 30
0.0
 10
2.899637379391085
 20
-9.551316010799917
 30
0.0
 10
2.732455502932011
 20
-9.506277787828369
 30
0.0
 10
2.56763064470156
 20
-9.45314768078252
 30
0.0
  0
ARC
  5
8E
330
1F
100
AcDbEntity
  8
0
  6
Continuous
 62
     7
370
    25
100
AcDbCircle
 10
3.8
 20
-7.0
 30
0.0
 40
2.700000000014282
100
AcDbArc
 50
254.2305591615
 51
270.0
  0
LINE
  5
8F
330
1F
100
AcDbEntity
  8
0
  6
Continuous
 62
     7
370
    25
100
AcDbLine
 10
4.8
 20
-9.7
 30
0.0
 11
3.8
 21
-9.7
 31
0.0
  0
ARC
  5
90
330
1F
100
AcDbEntity
  8
0
  6
Continuous
 62
     7
370
    25
100
AcDbCircle
 10
4.8
 20
-7.0
 30
0.0
 40
2.700000000037087
100
AcDbArc
 50
270.0
 51
0.0
  0
ARC
  5
91
330
1F
100
AcDbEntity
  8
0
  6
Continuous
 62
     7
370
    25
100
AcDbCircle
 10
10.8
 20
-7.0
 30
0.0
 40
3.299999999981461
100
AcDbArc
 50
121.920129471
 51
180.0
  0
SPLINE
  5
92
330
1F
100
AcDbEntity
  8
0
  6
Continuous
 62
     7
370
    25
100
AcDbSpline
210
0.0
220
0.0
230
1.0
 70
     8
 71
     3
 72
     8
 73
     4
 74
     0
 42
0.00000001
 43
0.00000001
 40
0.0
 40
0.0
 40
0.0
 40
0.0
 40
0.0005037117506969
 40
0.0005037117506969
 40
0.0005037117506969
 40
0.0005037117506969
 10
9.461145603988463
 20
-3.900830490561227
 30
0.0
 10
9.333059969401322
 20
-4.010079631668056
 30
0.0
 10
9.198079385799344
 20
-4.109941069269627
 30
0.0
 10
9.055169327102732
 20
-4.199006261535576
 30
0.0
  0
SPLINE
  5
93
330
1F
100
AcDbEntity
  8
0
  6
Continuous
 62
     7
370
    25
100
AcDbSpline
210
0.0
220
0.0
230
1.0
 70
     8
 71
     3
 72
    19
 73
    15
 74
     0
 42
0.00000001
 43
0.00000001
 40
0.0
 40
0.0
 40
0.0
 40
0.0
 40
0.0000745792005324
 40
0.0001491584010648
 40
0.0001491584010648
 40
0.0002237376015972
 40
0.0002237376015972
 40
0.0002610272018634
 40
0.0002983168021296
 40
0.0002983168021296
 40
0.000372896002662
 40
0.0004474752031944
 40
0.0004474752031944
 40
0.0005966336042592
 40
0.0005966336042592
 40
0.0005966336042592
 40
0.0005966336042592
 10
10.01129970511846
 20
-3.700000000000004
 30
0.0
 10
9.98612030950369
 20
-3.700000506222929
 30
0.0
 10
9.936114880512186
 20
-3.702197661001519
 30
0.0
 10
9.88679696632042
 20
-3.708667712438699
 30
0.0
 10
9.837821302466631
 20
-3.717264845960454
 30
0.0
 10
9.813490945185343
 20
-3.722632029790354
 30
0.0
 10
9.77729827445961
 20
-3.732295367405584
 30
0.0
 10
9.75323333541879
 20
-3.739289259009047
 30
0.0
 10
9.729360523170833
 20
-3.747388842982979
 30
0.0
 10
9.694055206268711
 20
-3.760250605162504
 30
0.0
 10
9.648078060632853
 20
-3.779349073625942
 30
0.0
 10
9.604245829505292
 20
-3.802266419450349
 30
0.0
 10
9.540106236255403
 20
-3.839505232022273
 30
0.0
 10
9.499481248013502
 20
-3.868130553565388
 30
0.0
 10
9.461145603988465
 20
-3.900830490561228
 30
0.0
  0
LINE
  5
94
330
1F
100
AcDbEntity
  8
0
  6
Continuous
 62
     7
370
    25
100
AcDbLine
 10
18.1928907779
 20
-3.7
 30
0.0
 11
10.0112997051
 21
-3.7
 31
0.0
  0
SPLINE
  5
95
330
1F
100
AcDbEntity
  8
0
  6
Continuous
 62
     7
370
    25
100
AcDbSpline
210
0.0
220
0.0
230
1.0
 70
     8
 71
     3
 72
     9
 73
     5
 74
     0
 42
0.00000001
 43
0.00000001
 40
0.0
 40
0.0
 40
0.0
 40
0.0
 40
0.0001573583400759
 40
0.0003147166801519
 40
0.0003147166801519
 40
0.0003147166801519
 40
0.0003147166801519
 10
18.50221221444959
 20
-3.758024457303241
 30
0.0
 10
18.4524771644798
 20
-3.738659387088091
 30
0.0
 10
18.35113746487177
 20
-3.709895858706272
 30
0.0
 10
18.24625655828824
 20
-3.700010080841191
 30
0.0
 10
18.1928907778816
 20
-3.700000000000011
 30
0.0
  0
SPLINE
  5
96
330
1F
100
AcDbEntity
  8
0
  6
Continuous
 62
     7
370
    25
100
AcDbSpline
210
0.0
220
0.0
230
1.0
 70
     8
 71
     2
 72
     6
 73
     3
 74
     0
 42
0.00000001
 43
0.00000001
 40
0.4993307680258648
 40
0.4993307680258648
 40
0.4993307680258648
 40
0.4993933305990344
 40
0.4993933305990344
 40
0.4993933305990344
 10
19.03047619971798
 20
-3.949694398811931
 30
0.0
 10
18.75996598548284
 20
-3.858397953994184
 30
0.0
 10
18.50221221901672
 20
-3.758024458975677
 30
0.0
  0
SPLINE
  5
97
330
1F
100
AcDbEntity
  8
0
  6
Continuous
 62
     7
370
    25
100
AcDbSpline
210
0.0
220
0.0
230
1.0
 70
     8
 71
     3
 72
    31
 73
    27
 74
     0
 42
0.00000001
 43
0.00000001
 40
0.0
 40
0.0
 40
0.0
 40
0.0
 40
0.000068418734381
 40
0.000068418734381
 40
0.0001368374687621
 40
0.0001368374687621
 40
0.0002736749375242
 40
0.0002736749375242
 40
0.0005473498750484
 40
0.0005473498750484
 40
0.0010946997500967
 40
0.0010946997500967
 40
0.0016420496251451
 40
0.0019157245626693
 40
0.0019157245626693
 40
0.0021893995001935
 40
0.0021893995001935
 40
0.0024630744377177
 40
0.0024630744377177
 40
0.0027367493752418
 40
0.0027367493752418
 40
0.0032840992502902
 40
0.0032840992502902
 40
0.0038314491253386
 40
0.0038314491253386
 40
0.0043787990003869
 40
0.0043787990003869
 40
0.0043787990003869
 40
0.0043787990003869
 10
22.65
 20
-6.399999999999999
 30
0.0
 10
22.63297656339215
 20
-6.384829861472479
 30
0.0
 10
22.61575349177665
 20
-6.36948180871182
 30
0.0
 10
22.58148307859585
 20
-6.338948235499489
 30
0.0
 10
22.56431323354775
 20
-6.323653538711619
 30
0.0
 10
22.512872598011
 20
-6.277848621993599
 30
0.0
 10
22.47853692003055
 20
-6.24729834788534
 30
0.0
 10
22.37553544232675
 20
-6.15579468964996
 30
0.0
 10
22.3067466578124
 20
-6.094873898729289
 30
0.0
 10
22.09991036656045
 20
-5.9128308240688
 30
0.0
 10
21.9612709036669
 20
-5.79231824010661
 30
0.0
 10
21.68111536452925
 20
-5.554805615714699
 30
0.0
 10
21.46882467733148
 20
-5.379287033793094
 30
0.0
 10
21.25161905402475
 20
-5.20968230658447
 30
0.0
 10
21.1055349925093
 20
-5.098153013652222
 30
0.0
 10
21.03186723381781
 20
-5.043168968640161
 30
0.0
 10
20.88300185732655
 20
-4.934930869724551
 30
0.0
 10
20.807939204955
 20
-4.881778047455819
 30
0.0
 10
20.65666474480691
 20
-4.777820466459231
 30
0.0
 10
20.58040434738215
 20
-4.7269799144945
 30
0.0
 10
20.34960784263815
 20
-4.578271582938461
 30
0.0
 10
20.19302754758315
 20
-4.484185747468925
 30
0.0
 10
19.8733814796861
 20
-4.308129481601547
 30
0.0
 10
19.7103197890605
 20
-4.226144181491941
 30
0.0
 10
19.37651572360775
 20
-4.076504549535028
 30
0.0
 10
19.2057803166946
 20
-4.008837217403991
 30
0.0
 10
19.03047619643205
 20
-3.949694397745362
 30
0.0
  0
LINE
  5
98
330
1F
100
AcDbEntity
  8
0
  6
Continuous
 62
     7
370
    25
100
AcDbLine
 10
22.65
 20
-9.7
 30
0.0
 11
22.65
 21
-6.4
 31
0.0
  0
LINE
  5
99
330
1F
100
AcDbEntity
  8
0
  6
Continuous
 62
     7
370
    25
100
AcDbLine
 10
26.2
 20
-9.7
 30
0.0
 11
22.65
 21
-9.7
 31
0.0
  0
ARC
  5
9A
330
1F
100
AcDbEntity
  8
0
  6
Continuous
 62
     7
370
    25
100
AcDbCircle
 10
26.2
 20
-6.3
 30
0.0
 40
3.400000000035597
100
AcDbArc
 50
270.0
 51
0.0
  0
LINE
  5
9B
330
1F
100
AcDbEntity
  8
0
  6
Continuous
 62
     7
370
    25
100
AcDbLine
 10
29.6
 20
-4.5764939444
 30
0.0
 11
29.6
 21
-6.3
 31
0.0
  0
ARC
  5
9C
330
1F
100
AcDbEntity
  8
0
  6
Continuous
 62
     7
370
    25
100
AcDbCircle
 10
24.9
 20
-4.5764939444
 30
0.0
 40
4.699999999963676
100
AcDbArc
 50
0.0
 51
35.0
  0
LINE
  5
9D
330
1F
100
AcDbEntity
  8
0
  6
Continuous
 62
     7
370
    25
100
AcDbLine
 10
26.7989286138
 20
0.9066440661
 30
0.0
 11
28.7500146081
 21
-1.8806846936
 31
0.0
  0
SPLINE
  5
9E
330
1F
100
AcDbEntity
  8
0
  6
Continuous
 62
     7
370
    25
100
AcDbSpline
210
0.0
220
0.0
230
1.0
 70
     8
 71
     3
 72
    28
 73
    24
 74
     0
 42
0.00000001
 43
0.00000001
 40
0.0003058814741675
 40
0.0003058814741675
 40
0.0003058814741675
 40
0.0003058814741675
 40
0.0008029392406082
 40
0.0008029392406082
 40
0.0016058784812165
 40
0.0016058784812165
 40
0.0024088177218247
 40
0.0024088177218247
 40
0.0032117569624329
 40
0.0032117569624329
 40
0.0036132265827371
 40
0.0040146962030412
 40
0.0040146962030412
 40
0.0042154310131932
 40
0.0042154310131932
 40
0.0044161658233453
 40
0.0044161658233453
 40
0.0046169006334974
 40
0.0048176354436494
 40
0.0052191050639535
 40
0.0056205746842577
 40
0.0056205746842577
 40
0.0064235139248659
 40
0.0064235139248659
 40
0.0064235139248659
 40
0.0064235139248659
 10
25.05360785131773
 20
6.69999985387063
 30
0.0
 10
25.07543731094813
 20
6.536808982059151
 30
0.0
 10
25.09801825959098
 20
6.373737645423307
 30
0.0
 10
25.1594498204567
 20
5.94762102728473
 30
0.0
 10
25.1997420012872
 20
5.684805048394738
 30
0.0
 10
25.28694208879245
 20
5.16022541665015
 30
0.0
 10
25.33382872849894
 20
4.898458381888855
 30
0.0
 10
25.43704824859029
 20
4.37642687194152
 30
0.0
 10
25.49336093129849
 20
4.11615918553827
 30
0.0
 10
25.58804772102264
 20
3.72738293793767
 30
0.0
 10
25.65459909009186
 20
3.468743862103365
 30
0.0
 10
25.7293564733247
 20
3.21141007106883
 30
0.0
 10
25.78907776852894
 20
3.0189908312407
 30
0.0
 10
25.80959895057299
 20
2.954937954754944
 30
0.0
 10
25.85195031379439
 20
2.827083651988094
 30
0.0
 10
25.87381888117919
 20
2.763177703798054
 30
0.0
 10
25.9188027876354
 20
2.636115297081659
 30
0.0
 10
25.96507298210416
 20
2.509673261588282
 30
0.0
 10
26.06303372475514
 20
2.259498661123175
 30
0.0
 10
26.19620921856521
 20
1.952096545366789
 30
0.0
 10
26.31530234429149
 20
1.71240666533674
 30
0.0
 10
26.5041616698267
 20
1.357943280745519
 30
0.0
 10
26.64367026384445
 20
1.128385314988089
 30
0.0
 10
26.79892861381424
 20
0.9066440661014182
 30
0.0
  0
LINE
  5
9F
330
1F
100
AcDbEntity
  8
0
  6
Continuous
 62
     7
370
    25
100
AcDbLine
 10
-16.453607832
 20
6.6999998396
 30
0.0
 11
25.0536078513
 21
6.6999998539
 31
0.0
  0
SPLINE
  5
A0
330
1F
100
AcDbEntity
  8
0
  6
Continuous
 62
     7
370
    25
100
AcDbSpline
210
0.0
220
0.0
230
1.0
 70
     8
 71
     3
 72
    25
 73
    21
 74
     0
 42
0.00000001
 43
0.00000001
 40
0.0
 40
0.0
 40
0.0
 40
0.0
 40
0.0008005543660773
 40
0.0008005543660773
 40
0.0016011087321546
 40
0.0020013859151932
 40
0.0020013859151932
 40
0.0024016630982319
 40
0.0024016630982319
 40
0.0028019402812705
 40
0.0028019402812705
 40
0.0032022174643091
 40
0.0032022174643091
 40
0.0040027718303864
 40
0.0040027718303864
 40
0.0048033261964637
 40
0.0048033261964637
 40
0.005603880562541
 40
0.005603880562541
 40
0.0060994619343163
 40
0.0060994619343163
 40
0.0060994619343163
 40
0.0060994619343163
 10
-18.19892861381437
 20
0.9066440661013054
 30
0.0
 10
-18.04364749330207
 20
1.128419634950544
 30
0.0
 10
-17.90431414797937
 20
1.357728308496384
 30
0.0
 10
-17.65300118371502
 20
1.829266485129382
 30
0.0
 10
-17.48508986900878
 20
2.192638190392711
 30
0.0
 10
-17.34293601428498
 20
2.56817671143565
 30
0.0
 10
-17.25328654302087
 20
2.820954102131948
 30
0.0
 10
-17.21102900353748
 20
2.948526117192104
 30
0.0
 10
-17.13098888750212
 20
3.205901237627197
 30
0.0
 10
-17.09342038991687
 20
3.335003425178917
 30
0.0
 10
-17.02245909400093
 20
3.593729502748042
 30
0.0
 10
-16.98905501964582
 20
3.723388520127136
 30
0.0
 10
-16.89404003832077
 20
4.113093697151672
 30
0.0
 10
-16.83758060078762
 20
4.373870852092481
 30
0.0
 10
-16.73413742777272
 20
4.89676177502097
 30
0.0
 10
-16.68717507397457
 20
5.158879338989115
 30
0.0
 10
-16.59985868986542
 20
5.684047701645426
 30
0.0
 10
-16.55952671422097
 20
5.947101613971143
 30
0.0
 10
-16.49804583761189
 20
6.373537711449496
 30
0.0
 10
-16.47544977067003
 20
6.536715526169346
 30
0.0
 10
-16.45360783197745
 20
6.699999839573573
 30
0.0
  0
LINE
  5
A1
330
1F
100
AcDbEntity
  8
0
  6
Continuous
 62
     7
370
    25
100
AcDbLine
 10
-20.1500146082
 20
-1.8806846935
 30
0.0
 11
-18.1989286138
 21
0.9066440661
 31
0.0
  0
ARC
  5
A2
330
1F
100
AcDbEntity
  8
0
  6
Continuous
 62
     7
370
    25
100
AcDbCircle
 10
-16.3
 20
-4.5764939444
 30
0.0
 40
4.700000000039413
100
AcDbArc
 50
145.0000000001
 51
180.0
  0
LINE
  5
A3
330
1F
100
AcDbEntity
  8
0
  6
Continuous
 62
     7
370
    25
100
AcDbLine
 10
-21.0
 20
-6.3
 30
0.0
 11
-21.0
 21
-4.5764939444
 31
0.0
  0
ARC
  5
A4
330
1F
100
AcDbEntity
  8
0
  6
Continuous
 62
     7
370
    25
100
AcDbCircle
 10
-17.6
 20
-6.3
 30
0.0
 40
3.400000000003526
100
AcDbArc
 50
180.0
 51
270.0
  0
LINE
  5
A5
330
1F
100
AcDbEntity
  8
0
  6
Continuous
 62
     7
370
    25
100
AcDbLine
 10
-14.05
 20
-9.7
 30
0.0
 11
-17.6
 21
-9.7
 31
0.0
  0
LINE
  5
A6
330
1F
100
AcDbEntity
  8
0
  6
Continuous
 62
     7
370
    25
100
AcDbLine
 10
-14.05
 20
-6.4
 30
0.0
 11
-14.05
 21
-9.7
 31
0.0
  0
MTEXT
  5
A8
330
1F
100
AcDbEntity
  8
0
  6
Continuous
 62
     7
100
AcDbMText
 10
-21.0
 20
-21.7695663917
 30
0.0
 40
4.83362
 41
0.0
 71
     1
 72
     1
  1
SOLIDWORKS Educational Product.
  7
SLDTEXTSTYLE0
 73
     1
 44
1.0
  0
MTEXT
  5
A9
330
1F
100
AcDbEntity
  8
0
  6
Continuous
 62
     7
100
AcDbMText
 10
-21.0
 20
-29.0199963917
 30
0.0
 40
4.83362
 41
0.0
 71
     1
 72
     1
  1
For Instructional Use Only.
  7
SLDTEXTSTYLE0
 73
     1
 44
1.0
  0
ENDSEC
  0
SECTION
  2
OBJECTS
  0
DICTIONARY
  5
C
330
0
100
AcDbDictionary
281
     1
  3
ACAD_GROUP
350
D
  3
ACAD_LAYOUT
350
1A
  3
ACAD_MLINESTYLE
350
17
  3
ACAD_PLOTSETTINGS
350
19
  3
ACAD_PLOTSTYLENAME
350
E
  3
ACAD_SCALELIST
350
47
  3
DWGPROPS
350
AA
  0
DICTIONARY
  5
D
102
{ACAD_REACTORS
330
C
102
}
330
C
100
AcDbDictionary
281
     1
  0
DICTIONARY
  5
1A
102
{ACAD_REACTORS
330
C
102
}
330
C
100
AcDbDictionary
281
     1
  3
Layout1
350
1E
  3
Layout2
350
26
  3
Model
350
22
  0
DICTIONARY
  5
17
102
{ACAD_REACTORS
330
C
102
}
330
C
100
AcDbDictionary
281
     1
  3
Standard
350
18
  0
DICTIONARY
  5
19
102
{ACAD_REACTORS
330
C
102
}
330
C
100
AcDbDictionary
281
     1
  0
ACDBDICTIONARYWDFLT
  5
E
102
{ACAD_REACTORS
330
C
102
}
330
C
100
AcDbDictionary
281
     1
  3
Normal
350
F
100
AcDbDictionaryWithDefault
340
F
  0
DICTIONARY
  5
47
102
{ACAD_REACTORS
330
C
102
}
330
C
100
AcDbDictionary
281
     1
  3
A0
350
48
  3
A1
350
49
  3
A2
350
4A
  3
A3
350
4B
  3
A4
350
4C
  3
A5
350
4D
  3
A6
350
4E
  3
A7
350
4F
  3
A8
350
50
  3
A9
350
51
  3
B0
350
52
  3
B1
350
53
  3
B2
350
54
  3
B3
350
55
  3
B4
350
56
  3
B5
350
57
  3
B6
350
58
  3
B7
350
59
  3
B8
350
5A
  3
B9
350
5B
  3
C0
350
5C
  3
C1
350
5D
  3
C2
350
5E
  3
C3
350
5F
  3
C4
350
60
  3
C5
350
61
  3
C6
350
62
  3
C7
350
63
  3
C8
350
64
  3
C9
350
65
  3
D0
350
66
  3
D1
350
67
  3
D2
350
68
  0
XRECORD
  5
AA
102
{ACAD_REACTORS
330
C
102
}
330
C
100
AcDbXrecord
280
     1
  1
DWGPROPS COOKIE
  2

  3

  4

  6

  7

  8
Anton
  9

300
=
301
=
302
=
303
=
304
=
305
=
306
=
307
=
308
=
309
=
 40
0.0
 41
2459210.252885717
 42
2459210.252945035
  1

 90
        0
  0
LAYOUT
  5
1E
102
{ACAD_REACTORS
330
1A
102
}
330
1A
100
AcDbPlotSettings
  1

  2
none_device
  4

  6

 40
0.0
 41
0.0
 42
0.0
 43
0.0
 44
0.0
 45
0.0
 46
0.0
 47
0.0
 48
0.0
 49
0.0
140
0.0
141
0.0
142
1.0
143
1.0
 70
   688
 72
     1
 73
     0
 74
     5
  7

 75
    16
147
1.0
148
0.0
149
0.0
100
AcDbLayout
  1
Layout1
 70
     1
 71
     1
 10
0.0
 20
0.0
 11
420.0
 21
297.0
 12
0.0
 22
0.0
 32
0.0
 14
1.0000000000E+20
 24
1.0000000000E+20
 34
1.0000000000E+20
 15
-1.0000000000E+20
 25
-1.0000000000E+20
 35
-1.0000000000E+20
146
0.0
 13
0.0
 23
0.0
 33
0.0
 16
1.0
 26
0.0
 36
0.0
 17
0.0
 27
1.0
 37
0.0
 76
     0
330
1B
  0
LAYOUT
  5
26
102
{ACAD_REACTORS
330
1A
102
}
330
1A
100
AcDbPlotSettings
  1

  2
none_device
  4

  6

 40
0.0
 41
0.0
 42
0.0
 43
0.0
 44
0.0
 45
0.0
 46
0.0
 47
0.0
 48
0.0
 49
0.0
140
0.0
141
0.0
142
1.0
143
1.0
 70
   688
 72
     1
 73
     0
 74
     5
  7

 75
    16
147
1.0
148
0.0
149
0.0
100
AcDbLayout
  1
Layout2
 70
     1
 71
     2
 10
0.0
 20
0.0
 11
0.0
 21
0.0
 12
0.0
 22
0.0
 32
0.0
 14
0.0
 24
0.0
 34
0.0
 15
0.0
 25
0.0
 35
0.0
146
0.0
 13
0.0
 23
0.0
 33
0.0
 16
1.0
 26
0.0
 36
0.0
 17
0.0
 27
1.0
 37
0.0
 76
     0
330
23
  0
LAYOUT
  5
22
102
{ACAD_REACTORS
330
1A
102
}
330
1A
100
AcDbPlotSettings
  1

  2
none_device
  4
ANSI_A_(11.00_x_8.50_Inches)
  6

 40
6.35
 41
19.05
 42
6.35000508
 43
19.05000254
 44
279.4
 45
215.9
 46
109.8439539818
 47
127.3023143467
 48
0.0
 49
0.0
140
0.0
141
0.0
142
0.2152173913
143
1.0
 70
  1696
 72
     0
 73
     0
 74
     0
  7

 75
     0
147
0.0179189148
148
-1300.4909072572
149
0.0
100
AcDbLayout
  1
Model
 70
     1
 71
     0
 10
0.0
 20
0.0
 11
420.0
 21
297.0
 12
0.0
 22
0.0
 32
0.0
 14
-21.0
 24
-20.75
 34
0.0
 15
29.6
 25
6.6999998539
 35
0.0
146
0.0
 13
0.0
 23
0.0
 33
0.0
 16
1.0
 26
0.0
 36
0.0
 17
0.0
 27
1.0
 37
0.0
 76
     0
330
1F
331
29
  0
MLINESTYLE
  5
18
102
{ACAD_REACTORS
330
17
102
}
330
17
100
AcDbMlineStyle
  2
Standard
 70
     0
  3

 62
   256
 51
90.0
 52
90.0
 71
     2
 49
0.5
 62
   256
  6
BYLAYER
 49
-0.5
 62
   256
  6
BYLAYER
  0
ACDBPLACEHOLDER
  5
F
102
{ACAD_REACTORS
330
E
102
}
330
E
  0
SCALE
  5
48
102
{ACAD_REACTORS
330
47
102
}
330
47
100
AcDbScale
 70
     0
300
1:1
140
1.0
141
1.0
290
     1
  0
SCALE
  5
49
102
{ACAD_REACTORS
330
47
102
}
330
47
100
AcDbScale
 70
     0
300
1:2
140
1.0
141
2.0
290
     0
  0
SCALE
  5
4A
102
{ACAD_REACTORS
330
47
102
}
330
47
100
AcDbScale
 70
     0
300
1:4
140
1.0
141
4.0
290
     0
  0
SCALE
  5
4B
102
{ACAD_REACTORS
330
47
102
}
330
47
100
AcDbScale
 70
     0
300
1:5
140
1.0
141
5.0
290
     0
  0
SCALE
  5
4C
102
{ACAD_REACTORS
330
47
102
}
330
47
100
AcDbScale
 70
     0
300
1:8
140
1.0
141
8.0
290
     0
  0
SCALE
  5
4D
102
{ACAD_REACTORS
330
47
102
}
330
47
100
AcDbScale
 70
     0
300
1:10
140
1.0
141
10.0
290
     0
  0
SCALE
  5
4E
102
{ACAD_REACTORS
330
47
102
}
330
47
100
AcDbScale
 70
     0
300
1:16
140
1.0
141
16.0
290
     0
  0
SCALE
  5
4F
102
{ACAD_REACTORS
330
47
102
}
330
47
100
AcDbScale
 70
     0
300
1:20
140
1.0
141
20.0
290
     0
  0
SCALE
  5
50
102
{ACAD_REACTORS
330
47
102
}
330
47
100
AcDbScale
 70
     0
300
1:30
140
1.0
141
30.0
290
     0
  0
SCALE
  5
51
102
{ACAD_REACTORS
330
47
102
}
330
47
100
AcDbScale
 70
     0
300
1:40
140
1.0
141
40.0
290
     0
  0
SCALE
  5
52
102
{ACAD_REACTORS
330
47
102
}
330
47
100
AcDbScale
 70
     0
300
1:50
140
1.0
141
50.0
290
     0
  0
SCALE
  5
53
102
{ACAD_REACTORS
330
47
102
}
330
47
100
AcDbScale
 70
     0
300
1:100
140
1.0
141
100.0
290
     0
  0
SCALE
  5
54
102
{ACAD_REACTORS
330
47
102
}
330
47
100
AcDbScale
 70
     0
300
2:1
140
2.0
141
1.0
290
     0
  0
SCALE
  5
55
102
{ACAD_REACTORS
330
47
102
}
330
47
100
AcDbScale
 70
     0
300
4:1
140
4.0
141
1.0
290
     0
  0
SCALE
  5
56
102
{ACAD_REACTORS
330
47
102
}
330
47
100
AcDbScale
 70
     0
300
8:1
140
8.0
141
1.0
290
     0
  0
SCALE
  5
57
102
{ACAD_REACTORS
330
47
102
}
330
47
100
AcDbScale
 70
     0
300
10:1
140
10.0
141
1.0
290
     0
  0
SCALE
  5
58
102
{ACAD_REACTORS
330
47
102
}
330
47
100
AcDbScale
 70
     0
300
100:1
140
100.0
141
1.0
290
     0
  0
SCALE
  5
59
102
{ACAD_REACTORS
330
47
102
}
330
47
100
AcDbScale
 70
     0
300
1/128" = 1'-0"
140
0.0078125
141
12.0
290
     0
  0
SCALE
  5
5A
102
{ACAD_REACTORS
330
47
102
}
330
47
100
AcDbScale
 70
     0
300
1/64" = 1'-0"
140
0.015625
141
12.0
290
     0
  0
SCALE
  5
5B
102
{ACAD_REACTORS
330
47
102
}
330
47
100
AcDbScale
 70
     0
300
1/32" = 1'-0"
140
0.03125
141
12.0
290
     0
  0
SCALE
  5
5C
102
{ACAD_REACTORS
330
47
102
}
330
47
100
AcDbScale
 70
     0
300
1/16" = 1'-0"
140
0.0625
141
12.0
290
     0
  0
SCALE
  5
5D
102
{ACAD_REACTORS
330
47
102
}
330
47
100
AcDbScale
 70
     0
300
3/32" = 1'-0"
140
0.09375
141
12.0
290
     0
  0
SCALE
  5
5E
102
{ACAD_REACTORS
330
47
102
}
330
47
100
AcDbScale
 70
     0
300
1/8" = 1'-0"
140
0.125
141
12.0
290
     0
  0
SCALE
  5
5F
102
{ACAD_REACTORS
330
47
102
}
330
47
100
AcDbScale
 70
     0
300
3/16" = 1'-0"
140
0.1875
141
12.0
290
     0
  0
SCALE
  5
60
102
{ACAD_REACTORS
330
47
102
}
330
47
100
AcDbScale
 70
     0
300
1/4" = 1'-0"
140
0.25
141
12.0
290
     0
  0
SCALE
  5
61
102
{ACAD_REACTORS
330
47
102
}
330
47
100
AcDbScale
 70
     0
300
3/8" = 1'-0"
140
0.375
141
12.0
290
     0
  0
SCALE
  5
62
102
{ACAD_REACTORS
330
47
102
}
330
47
100
AcDbScale
 70
     0
300
1/2" = 1'-0"
140
0.5
141
12.0
290
     0
  0
SCALE
  5
63
102
{ACAD_REACTORS
330
47
102
}
330
47
100
AcDbScale
 70
     0
300
3/4" = 1'-0"
140
0.75
141
12.0
290
     0
  0
SCALE
  5
64
102
{ACAD_REACTORS
330
47
102
}
330
47
100
AcDbScale
 70
     0
300
1" = 1'-0"
140
1.0
141
12.0
290
     0
  0
SCALE
  5
65
102
{ACAD_REACTORS
330
47
102
}
330
47
100
AcDbScale
 70
     0
300
1-1/2" = 1'-0"
140
1.5
141
12.0
290
     0
  0
SCALE
  5
66
102
{ACAD_REACTORS
330
47
102
}
330
47
100
AcDbScale
 70
     0
300
3" = 1'-0"
140
3.0
141
12.0
290
     0
  0
SCALE
  5
67
102
{ACAD_REACTORS
330
47
102
}
330
47
100
AcDbScale
 70
     0
300
6" = 1'-0"
140
6.0
141
12.0
290
     0
  0
SCALE
  5
68
102
{ACAD_REACTORS
330
47
102
}
330
47
100
AcDbScale
 70
     0
300
1'-0" = 1'-0"
140
12.0
141
12.0
290
     0
  0
ENDSEC
  0
EOF
